<svg width="326" height="127" viewBox="0 0 326 127" fill="none" xmlns="http://www.w3.org/2000/svg">
<g clip-path="url(#clip0_6951_5634)">
<path d="M326.303 14.2169V150.85H0V-159H325.803V13.9224C325.97 14.0206 326.136 14.1187 326.303 14.2169Z" fill="#C6EDFD"/>
<path d="M326.302 -159V14.2169C326.136 14.1187 325.969 14.0205 325.803 13.9224V-159H326.302Z" fill="#C6EDFD"/>
<path d="M325.803 13.9224C318.769 9.77698 310.562 7.39845 301.803 7.39845C276.011 7.39845 255.044 28.0048 254.515 53.6249C250.075 51.7145 245.181 50.6498 240.037 50.6498C226.581 50.6498 214.835 57.9137 208.489 68.719C201.069 59.2276 189.504 53.1114 176.509 53.1114C174.943 53.1114 173.408 53.2095 171.887 53.3832C172.893 50.5894 173.446 47.5842 173.446 44.4506C173.446 29.8698 161.601 18.0452 146.995 18.0452C145.535 18.0452 144.106 18.166 142.706 18.3925C140.967 5.48808 129.901 -4.46395 116.498 -4.46395C116.467 -4.46395 116.437 -4.46395 116.399 -4.46395C116.082 -4.83395 115.756 -5.20393 115.424 -5.57393C118.041 -12.8605 119.463 -20.7134 119.463 -28.8986C119.463 -63.2852 94.3509 -91.8199 61.4257 -97.2112C61.3652 -97.2263 61.3046 -97.2339 61.2441 -97.2414C59.8675 -97.468 58.4682 -97.6492 57.0614 -97.7927C54.7771 -98.0192 52.455 -98.1324 50.1102 -98.1324C45.9577 -98.1324 41.8884 -97.77 37.9325 -97.0678C34.2187 -96.4109 30.6032 -95.4594 27.1162 -94.2286C23.6218 -93.013 20.2483 -91.5103 17.0337 -89.7661C10.6877 -86.3229 4.94673 -81.9207 0 -76.7635V68.1225C0.0832019 68.3188 0.166404 68.5152 0.257169 68.7115C3.59281 76.1113 8.1916 82.8241 13.7888 88.5703C17.2228 92.0965 21.0274 95.2603 25.1421 97.9937C28.7803 100.418 32.6605 102.502 36.745 104.208C44.982 107.659 54.0358 109.562 63.5284 109.562C65.6236 109.562 67.6961 109.471 69.7459 109.282C81.1294 108.278 91.7263 104.518 100.863 98.6884C101.718 98.1372 102.565 97.5709 103.397 96.9895C110.795 104.805 121.263 109.69 132.873 109.69C134.976 109.69 137.049 109.531 139.068 109.222C145.187 123.833 159.642 134.094 176.494 134.094C192.431 134.094 206.22 124.913 212.846 111.555C219.539 118.978 229.236 123.652 240.022 123.652C257.812 123.652 272.63 110.966 275.905 94.1579C275.905 94.1579 275.905 94.1579 275.913 94.1579C277.176 94.9809 278.477 95.7511 279.823 96.4534C279.997 96.5515 280.178 96.6422 280.36 96.7328C286.789 100.002 294.073 101.845 301.788 101.845C308.649 101.845 315.161 100.387 321.046 97.7672C322.68 97.0423 324.26 96.2269 325.788 95.3208C325.955 95.2226 326.121 95.1244 326.287 95.0263V14.2169C326.121 14.1187 325.955 14.0206 325.788 13.9224H325.803Z" fill="#D9F3FC"/>
<path d="M107.149 65.7365C104.902 65.7365 102.754 66.1745 100.788 66.9598C98.0874 59.0012 90.5463 53.2776 81.6588 53.2776C73.9816 53.2776 67.3103 57.5514 63.8915 63.8413C60.8433 57.5892 54.4216 53.2776 46.9864 53.2776C43.1666 53.2776 39.6116 54.4178 36.6466 56.3735C36.6693 55.7921 36.6845 55.2106 36.6845 54.6217C36.6845 48.7018 35.2776 43.1066 32.774 38.1532H32.7664C26.7381 26.1927 14.3258 17.9924 0 17.9924V91.2434C4.87865 91.2434 9.53039 90.292 13.7888 88.5704C19.7794 86.139 24.9908 82.1748 28.9164 77.1685C31.1553 85.029 38.3939 90.7903 46.9864 90.7903C53.877 90.7903 59.9053 87.0828 63.1729 81.5556C66.3043 88.6459 73.3992 93.5992 81.6588 93.5992C85.4408 93.5992 88.9806 92.5572 92.0137 90.7526C94.8804 96.1816 100.583 99.8816 107.149 99.8816C116.596 99.8816 124.251 92.2401 124.251 82.809C124.251 73.378 116.596 65.7365 107.149 65.7365Z" fill="#F2FBFF"/>
<path d="M325.803 55.8825C323.035 54.1458 319.979 52.832 316.727 52.0165C314.238 51.3973 311.636 51.0651 308.959 51.0651C297.379 51.0651 287.235 57.2492 281.684 66.4915C278.023 62.784 272.932 60.4886 267.305 60.4886C257.321 60.4886 249.038 67.7223 247.404 77.2213C244.56 75.1146 241.043 73.8687 237.231 73.8687C227.784 73.8687 220.129 81.5102 220.129 90.9412C220.129 100.372 227.784 108.014 237.231 108.014C245.075 108.014 251.686 102.736 253.698 95.5472C257.29 98.8168 262.063 100.81 267.305 100.81C272.176 100.81 276.646 99.0886 280.133 96.2193C280.209 96.3929 280.292 96.5591 280.375 96.7327C285.541 107.281 296.403 114.553 308.959 114.553C315.146 114.553 320.917 112.793 325.803 109.735C325.97 109.637 326.136 109.531 326.303 109.418V56.1997C326.136 56.0864 325.97 55.9807 325.803 55.8825Z" fill="#F2FBFF"/>
<path d="M326.303 81.5328V150.85H0V109.901C12.1399 107.9 24.3857 106.005 36.745 104.208C39.9142 103.747 43.091 103.294 46.2754 102.849C62.9157 100.508 79.7528 98.3411 96.7562 96.3703H96.7638C98.5942 96.1513 100.425 95.9399 102.255 95.736H102.263C103.382 95.6076 104.494 95.4793 105.613 95.3584C110.485 94.8072 115.371 94.2787 120.264 93.7652C122.118 93.5689 123.971 93.3801 125.824 93.1838H125.831C129.205 92.844 132.586 92.5042 135.975 92.172C136.353 92.1342 136.731 92.0965 137.117 92.0587C137.608 92.0134 138.1 91.9606 138.599 91.9152C146.027 91.1979 153.492 90.5108 160.988 89.869C161.82 89.7935 162.652 89.7179 163.484 89.65C165.02 89.5141 166.563 89.3857 168.113 89.2649C168.31 89.2423 168.514 89.2271 168.718 89.212C180.238 88.2531 191.826 87.3772 203.489 86.5919C207.747 86.2974 212.021 86.0256 216.302 85.7613C217.875 85.6631 219.449 85.565 221.03 85.4744C229.781 84.9458 238.57 84.4701 247.397 84.0397C249.182 83.9566 250.967 83.866 252.752 83.7905C256.564 83.6093 260.384 83.4432 264.211 83.2922C268.243 83.1185 272.289 82.9599 276.336 82.8165C276.608 82.8014 276.881 82.7938 277.153 82.7863C280.564 82.6654 283.983 82.5446 287.409 82.4465C297.341 82.1293 307.31 81.8802 317.317 81.6914C320.138 81.6385 322.967 81.5857 325.796 81.5404C325.962 81.5404 326.129 81.5404 326.295 81.5328H326.303Z" fill="#F0F299"/>
<path d="M326.303 127.231V150.85H0V64.0752C2.89694 64.3924 5.79387 64.7095 8.67568 65.0342C9.54552 65.1248 10.4078 65.223 11.2776 65.3287H11.2852C12.0718 65.4117 12.8509 65.5023 13.6375 65.593C18.6977 66.1668 23.7503 66.7558 28.7803 67.375C30.5729 67.5864 32.3655 67.8054 34.1506 68.0243C43.3406 69.1645 52.4777 70.35 61.5542 71.5959C62.9611 71.7847 64.368 71.981 65.7748 72.1773C74.4052 73.3704 82.9825 74.6238 91.5069 75.915C91.9759 75.9905 92.4524 76.0585 92.9213 76.134C95.7729 76.5644 98.6169 77.0099 101.453 77.4629C105.636 78.1123 109.804 78.7768 113.964 79.4563C114.819 79.5998 115.666 79.7357 116.52 79.8792C117.292 80.0075 118.071 80.1359 118.842 80.2643C119.243 80.3247 119.644 80.3927 120.045 80.4606C121.422 80.6871 122.798 80.9212 124.167 81.1553C128.539 81.8877 132.904 82.6428 137.245 83.4054C144.544 84.6891 151.806 86.0105 159.021 87.3621C159.876 87.5207 160.723 87.6868 161.57 87.8454C162.342 87.9888 163.113 88.1398 163.885 88.2833C165.322 88.5551 166.759 88.8345 168.196 89.1139C168.37 89.1441 168.544 89.1743 168.718 89.2121C180.843 91.5528 192.839 93.9918 204.699 96.5289C208.716 97.3821 212.709 98.258 216.688 99.1339C218.836 99.6096 220.977 100.085 223.11 100.569H223.117C230.681 102.268 238.199 104.012 245.642 105.794H245.65C253.009 107.546 260.308 109.343 267.554 111.178C287.409 116.199 306.833 121.507 325.803 127.087C325.97 127.133 326.136 127.185 326.303 127.231Z" fill="#E3E988"/>
<path opacity="0.6" d="M274.589 150.85H166.638C166.366 150.684 166.086 150.518 165.814 150.359C138.236 133.974 105.787 120.042 69.7458 109.282C62.0837 106.987 54.2552 104.842 46.2754 102.849C39.3394 101.112 32.2974 99.4888 25.1421 97.9937C16.8975 96.257 8.51684 94.6789 0 93.2669V68.6813C0.0907657 68.6888 0.173968 68.6964 0.257169 68.7115C9.67411 69.9196 19.0003 71.2486 28.213 72.6908C29.3476 72.872 30.4746 73.0457 31.6016 73.2269C41.9186 74.873 52.0995 76.6776 62.1367 78.6106C62.9006 78.7541 63.657 78.8976 64.4134 79.0486C73.0966 80.74 81.674 82.5371 90.1303 84.4324C92.0439 84.8628 93.9576 85.2932 95.8561 85.7387C96.3629 85.8519 96.8697 85.9727 97.3764 86.0936C102.361 87.2413 107.293 88.4343 112.186 89.6576C115.318 90.4429 118.434 91.2357 121.528 92.0512C122.965 92.4212 124.394 92.7987 125.824 93.1838H125.831C129.258 94.0975 132.646 95.0262 136.02 95.9776C142.994 97.9258 149.854 99.9494 156.601 102.033H156.609C174.368 107.508 191.357 113.428 207.483 119.733C231.619 129.156 253.811 139.425 273.696 150.359C273.999 150.518 274.294 150.684 274.589 150.85Z" fill="#FFF4D4"/>
<path d="M29.6892 113.87C29.7255 113.278 29.0384 112.755 28.1544 112.701C27.2705 112.647 26.5244 113.082 26.4881 113.674C26.4518 114.265 27.139 114.788 28.0229 114.842C28.9068 114.896 29.6529 114.461 29.6892 113.87Z" fill="#F0FCFF"/>
<path d="M31.5637 114.122C31.6848 114.659 31.1326 115.134 30.3384 115.187C29.5442 115.24 28.7954 114.855 28.6744 114.319C28.5533 113.783 29.1055 113.307 29.8997 113.254C30.6939 113.201 31.4427 113.586 31.5637 114.122Z" fill="#F0FCFF"/>
<path d="M28.3258 114.744C28.358 114.219 27.6676 113.75 26.7836 113.696C25.8997 113.642 25.157 114.023 25.1248 114.548C25.0925 115.072 25.783 115.541 26.6669 115.595C27.5509 115.649 28.2936 115.268 28.3258 114.744Z" fill="#F0FCFF"/>
<path d="M31.2427 115.593C31.2739 115.085 30.6536 114.634 29.8572 114.585C29.0608 114.536 28.3899 114.908 28.3587 115.416C28.3275 115.924 28.9478 116.375 29.7442 116.424C30.5406 116.473 31.2115 116.1 31.2427 115.593Z" fill="#F0FCFF"/>
<path d="M29.0383 115.755C29.0695 115.247 28.4661 114.797 27.6905 114.75C26.915 114.702 26.261 115.075 26.2298 115.583C26.1986 116.091 26.802 116.541 27.5776 116.589C28.3531 116.636 29.0071 116.263 29.0383 115.755Z" fill="#F0FCFF"/>
<path d="M29.6248 114.578C29.6453 114.244 29.1211 113.941 28.454 113.9C27.7868 113.86 27.2294 114.096 27.2089 114.43C27.1885 114.763 27.7127 115.066 28.3798 115.107C29.0469 115.148 29.6043 114.911 29.6248 114.578Z" fill="#E3E988"/>
<path opacity="0.7" d="M171.396 96.9215C171.275 96.3854 170.534 95.9928 169.732 96.0532C169.596 96.0607 169.467 96.0909 169.346 96.1211C169.089 95.7813 168.59 95.5322 167.992 95.4944C167.107 95.4415 166.358 95.8795 166.321 96.4685V96.4836C165.572 96.5213 164.974 96.8687 164.952 97.3368C164.921 97.7748 165.398 98.1674 166.071 98.326C166.071 98.3411 166.063 98.3562 166.063 98.3788C166.033 98.8847 166.638 99.3302 167.41 99.3831C167.954 99.4133 168.438 99.2396 168.688 98.9527C168.93 99.0962 169.233 99.1943 169.573 99.217C170.367 99.2623 171.04 98.8923 171.071 98.3864C171.086 98.1825 170.987 97.9937 170.821 97.8276C171.237 97.6313 171.479 97.2915 171.396 96.9291V96.9215ZM168.378 97.7974C168.302 97.7521 168.219 97.7068 168.121 97.6766C168.121 97.6615 168.121 97.6464 168.128 97.6313C168.34 97.6162 168.544 97.5784 168.726 97.518C168.726 97.518 168.741 97.5331 168.749 97.5407C168.597 97.6086 168.469 97.6993 168.378 97.805V97.7974Z" fill="#F0FCFF"/>
<path d="M169.458 97.3702C169.478 97.0371 168.954 96.7339 168.287 96.693C167.62 96.6522 167.062 96.8891 167.042 97.2223C167.021 97.5555 167.546 97.8586 168.213 97.8995C168.88 97.9403 169.437 97.7034 169.458 97.3702Z" fill="#E3E988"/>
<path d="M8.67578 63.7354V67.4655" stroke="#E3E988" stroke-width="1.51093" stroke-miterlimit="10" stroke-linecap="round"/>
<path d="M11.6334 64.1206L10.582 67.7299" stroke="#E3E988" stroke-width="1.51093" stroke-miterlimit="10" stroke-linecap="round"/>
<path d="M14.0689 64.1206L13.0176 67.7299" stroke="#E3E988" stroke-width="1.51093" stroke-miterlimit="10" stroke-linecap="round"/>
<path d="M113.964 78.1199V81.8424" stroke="#E3E988" stroke-width="1.51093" stroke-miterlimit="10" stroke-linecap="round"/>
<path d="M116.921 78.4976L115.87 82.1145" stroke="#E3E988" stroke-width="1.51093" stroke-miterlimit="10" stroke-linecap="round"/>
<path d="M119.357 78.4976L118.306 82.1145" stroke="#E3E988" stroke-width="1.51093" stroke-miterlimit="10" stroke-linecap="round"/>
<path d="M159.022 86.071V89.7935" stroke="#E3E988" stroke-width="1.51093" stroke-miterlimit="10" stroke-linecap="round"/>
<path d="M161.979 86.4488L160.928 90.0657" stroke="#E3E988" stroke-width="1.51093" stroke-miterlimit="10" stroke-linecap="round"/>
<path d="M164.415 86.4488L163.363 90.0657" stroke="#E3E988" stroke-width="1.51093" stroke-miterlimit="10" stroke-linecap="round"/>
<path d="M191.485 106.262V108.459" stroke="#F2F4A2" stroke-width="0.755467" stroke-miterlimit="10" stroke-linecap="round"/>
<path d="M193.232 106.489L192.605 108.618" stroke="#F2F4A2" stroke-width="0.755467" stroke-miterlimit="10" stroke-linecap="round"/>
<path d="M194.661 106.489L194.042 108.618" stroke="#F2F4A2" stroke-width="0.755467" stroke-miterlimit="10" stroke-linecap="round"/>
<path d="M135.944 89.869V92.0663" stroke="#F2F4A2" stroke-width="0.755467" stroke-miterlimit="10" stroke-linecap="round"/>
<path d="M137.691 90.0957L137.071 92.225" stroke="#F2F4A2" stroke-width="0.755467" stroke-miterlimit="10" stroke-linecap="round"/>
<path d="M139.128 90.0957L138.508 92.225" stroke="#F2F4A2" stroke-width="0.755467" stroke-miterlimit="10" stroke-linecap="round"/>
</g>
<defs>
<clipPath id="clip0_6951_5634">
<rect width="326" height="309.586" fill="white" transform="translate(0 -159)"/>
</clipPath>
</defs>
</svg>
