<svg width="263" height="57" viewBox="0 0 263 57" fill="none" xmlns="http://www.w3.org/2000/svg">
<path d="M22.9594 49.8105L25.8934 48.4579C27.413 47.7572 29.1061 47.5182 30.761 47.7703L33.9552 48.2573C36.0333 48.5744 38.0495 47.385 38.7771 45.4128L39.8957 42.3815C40.4755 40.8111 41.5036 39.4448 42.8518 38.4537L45.4547 36.5399C47.1484 35.2947 47.7329 33.0288 46.8532 31.1178L45.5006 28.1838C44.7999 26.6642 44.5609 24.9711 44.813 23.3162L45.3 20.122C45.617 18.0439 44.4277 16.0278 42.4555 15.3002L39.4242 14.1815C37.8538 13.6018 36.4875 12.5736 35.4963 11.2254L33.5826 8.62248C32.3374 6.92878 30.0714 6.34435 28.1605 7.22402L25.2265 8.57664C23.7069 9.27729 22.0138 9.51634 20.3589 9.26424L17.1647 8.77723C15.0866 8.46018 13.0705 9.64956 12.3428 11.6218L11.2242 14.6531C10.6445 16.2234 9.61631 17.5897 8.26811 18.5809L5.66517 20.4946C3.97147 21.7398 3.38703 24.0058 4.2667 25.9168L5.61933 28.8507C6.31997 30.3703 6.55903 32.0635 6.30693 33.7183L5.81991 36.9125C5.50287 38.9906 6.69224 41.0068 8.66445 41.7344L11.6957 42.853C13.2661 43.4328 14.6324 44.4609 15.6236 45.8091L17.5373 48.4121C18.7825 50.1058 21.0485 50.6902 22.9594 49.8105Z" fill="#D2DAE5"/>
<path d="M34.9924 27.7225C32.784 27.1529 31.4555 24.9008 32.0251 22.6924C32.5947 20.484 34.8467 19.1554 37.0551 19.725C39.2636 20.2946 40.5921 22.5466 40.0225 24.7551C39.4529 26.9635 37.2009 28.2921 34.9924 27.7225Z" fill="white"/>
<path d="M27.7764 25.66C25.568 25.0904 24.2394 22.8383 24.809 20.6299C25.3786 18.4214 27.6307 17.0929 29.8391 17.6625C32.0476 18.2321 33.3761 20.4841 32.8065 22.6926C32.2369 24.901 29.9849 26.2296 27.7764 25.66Z" fill="white"/>
<path d="M29.2066 24.144C27.9574 23.8218 27.2059 22.5479 27.5281 21.2987C27.8503 20.0495 29.1241 19.298 30.3733 19.6202C31.6225 19.9424 32.374 21.2163 32.0518 22.4655C31.7296 23.7147 30.4558 24.4662 29.2066 24.144Z" fill="#9DA6BE"/>
<path d="M36.4226 26.1479C35.1734 25.8257 34.4219 24.5518 34.7441 23.3026C35.0663 22.0534 36.3401 21.302 37.5893 21.6241C38.8385 21.9463 39.59 23.2202 39.2678 24.4694C38.9456 25.7186 37.6718 26.4701 36.4226 26.1479Z" fill="#9DA6BE"/>
<path d="M32.2878 29.856C31.9939 30.2281 31.1107 30.9896 29.725 30.4463C28.3394 29.9031 28.1568 28.7681 28.14 28.2298" stroke="white" stroke-width="1.23763" stroke-linecap="round"/>
<path d="M197.646 13.6417L182.412 9.29982C176.514 7.61896 170.37 11.0374 168.69 16.9351C167.009 22.8329 170.427 28.9765 176.325 30.6574L191.559 34.9992C197.457 36.6801 203.601 33.2617 205.281 27.3639C206.962 21.4662 203.544 15.3225 197.646 13.6417Z" fill="#D2DAE5"/>
<path d="M193.56 27.9795L178.325 23.6377C172.428 21.9568 166.284 25.3753 164.603 31.273C162.922 37.1708 166.341 43.3144 172.238 44.9953L187.473 49.3371C193.371 51.018 199.514 47.5995 201.195 41.7018C202.876 35.8041 199.458 29.6604 193.56 27.9795Z" fill="#D2DAE5"/>
<path d="M172.819 36.2433C174.866 36.8992 177.057 35.7713 177.713 33.7243C178.369 31.6772 177.241 29.486 175.194 28.8301C173.147 28.1743 170.956 29.3021 170.3 31.3492C169.644 33.3962 170.772 35.5874 172.819 36.2433Z" fill="white"/>
<path d="M179.27 38.0822C181.317 38.738 183.508 37.6102 184.164 35.5631C184.82 33.516 183.692 31.3249 181.645 30.669C179.598 30.0131 177.407 31.1409 176.751 33.188C176.095 35.2351 177.223 37.4263 179.27 38.0822Z" fill="white"/>
<path d="M178.422 36.039C179.389 36.3488 180.425 35.816 180.734 34.8489C181.044 33.8817 180.511 32.8465 179.544 32.5366C178.577 32.2268 177.542 32.7596 177.232 33.7267C176.922 34.6939 177.455 35.7291 178.422 36.039Z" fill="#9DA6BE"/>
<path d="M172.12 34.2426C173.087 34.5524 174.122 34.0196 174.432 33.0525C174.742 32.0853 174.209 31.0501 173.242 30.7403C172.275 30.4304 171.24 30.9632 170.93 31.9304C170.62 32.8975 171.153 33.9327 172.12 34.2426Z" fill="#9DA6BE"/>
<circle cx="175.354" cy="40.2914" r="2.15016" transform="rotate(-4.13235 175.354 40.2914)" fill="white"/>
<path d="M244.992 10.4842L249.222 19.0724C249.51 19.6588 249.856 20.2169 250.252 20.7365L256.046 28.3575C258.233 31.2349 257.253 35.3935 254.011 36.9913L245.423 41.2219C244.836 41.5099 244.278 41.8551 243.759 42.2511L236.138 48.0456C233.26 50.2323 229.101 49.252 227.504 46.0104L223.273 37.4222C222.985 36.8358 222.64 36.2776 222.244 35.758L216.449 28.137C214.263 25.2597 215.243 21.101 218.485 19.5032L227.073 15.2726C227.659 14.9846 228.217 14.6394 228.737 14.2434L236.358 8.44894C239.235 6.26221 243.394 7.24253 244.992 10.4842Z" fill="#D2DAE5"/>
<path d="M228.253 31.7685C230.326 32.0788 232.258 30.6496 232.568 28.5763C232.879 26.503 231.45 24.5708 229.376 24.2605C227.303 23.9503 225.371 25.3794 225.06 27.4527C224.75 29.526 226.179 31.4582 228.253 31.7685Z" fill="white"/>
<path d="M235.272 33.1147C237.345 33.425 239.278 31.9958 239.588 29.9225C239.898 27.8492 238.469 25.917 236.396 25.6067C234.322 25.2964 232.39 26.7256 232.08 28.7989C231.77 30.8722 233.199 32.8044 235.272 33.1147Z" fill="white"/>
<path d="M234.601 31.5616C235.774 31.7371 236.867 30.9287 237.043 29.756C237.218 28.5833 236.41 27.4903 235.237 27.3148C234.064 27.1393 232.971 27.9477 232.796 29.1205C232.62 30.2932 233.429 31.3861 234.601 31.5616Z" fill="#9DA6BE"/>
<path d="M227.834 30.252C229.006 30.4275 230.099 29.6191 230.275 28.4464C230.45 27.2737 229.642 26.1808 228.469 26.0053C227.296 25.8298 226.204 26.6382 226.028 27.8109C225.853 28.9836 226.661 30.0765 227.834 30.252Z" fill="#9DA6BE"/>
<path d="M229.015 25.1953L229.25 23.626" stroke="white" stroke-width="1.06924" stroke-miterlimit="10" stroke-linecap="round"/>
<path d="M236.25 26.5746L236.485 25.0054" stroke="white" stroke-width="1.06924" stroke-miterlimit="10" stroke-linecap="round"/>
<circle cx="230.697" cy="36.0004" r="1.65844" transform="rotate(-4.13235 230.697 36.0004)" fill="white"/>
<path d="M133.415 27.8721C139.318 27.4516 143.762 22.3255 143.341 16.4226C142.921 10.5197 137.795 6.07537 131.892 6.4959C125.989 6.91642 121.545 12.0426 121.965 17.9454C122.386 23.8483 127.512 28.2926 133.415 27.8721Z" fill="#D2DAE5"/>
<path d="M121.158 31.816C127.061 31.3954 131.505 26.2693 131.085 20.3664C130.664 14.4635 125.538 10.0192 119.635 10.4397C113.732 10.8603 109.288 15.9864 109.709 21.8893C110.129 27.7922 115.255 32.2365 121.158 31.816Z" fill="#D2DAE5"/>
<path d="M142.174 40.1827C148.077 39.7621 152.521 34.636 152.1 28.7331C151.68 22.8302 146.554 18.3859 140.651 18.8064C134.748 19.227 130.304 24.3531 130.724 30.256C131.145 36.1589 136.271 40.6032 142.174 40.1827Z" fill="#D2DAE5"/>
<path d="M119.829 45.0288C125.732 44.6083 130.176 39.4822 129.755 33.5793C129.335 27.6764 124.209 23.2321 118.306 23.6526C112.403 24.0732 107.959 29.1993 108.379 35.1022C108.8 41.005 113.926 45.4494 119.829 45.0288Z" fill="#D2DAE5"/>
<path d="M133.181 51.1993C139.083 50.7787 143.528 45.6526 143.107 39.7497C142.687 33.8468 137.561 29.4025 131.658 29.823C125.755 30.2436 121.311 35.3697 121.731 41.2726C122.152 47.1755 127.278 51.6198 133.181 51.1993Z" fill="#D2DAE5"/>
<path d="M131.91 38.8072C137.813 38.3866 142.257 33.2605 141.836 27.3576C141.416 21.4548 136.29 17.0104 130.387 17.431C124.484 17.8515 120.04 22.9776 120.46 28.8805C120.881 34.7834 126.007 39.2277 131.91 38.8072Z" fill="#D2DAE5"/>
<path d="M123.887 34.1392C126.492 33.9536 128.447 31.5948 128.253 28.8709C128.059 26.1469 125.79 24.0891 123.184 24.2747C120.578 24.4604 118.624 26.8191 118.818 29.5431C119.012 32.267 121.281 34.3248 123.887 34.1392Z" fill="white"/>
<path d="M132.308 33.7502C134.795 33.573 136.654 31.2211 136.46 28.4971C136.266 25.7731 134.092 23.7085 131.605 23.8857C129.118 24.0629 127.259 26.4148 127.453 29.1388C127.647 31.8627 129.821 33.9273 132.308 33.7502Z" fill="white"/>
<path d="M131.512 31.651C132.933 31.5498 133.996 30.2196 133.886 28.6799C133.777 27.1403 132.536 25.9742 131.114 26.0755C129.693 26.1767 128.63 27.5069 128.74 29.0466C128.849 30.5862 130.09 31.7523 131.512 31.651Z" fill="#9DA6BE"/>
<path d="M123.305 32.0255C124.726 31.9243 125.789 30.5941 125.68 29.0544C125.57 27.5148 124.329 26.3487 122.908 26.45C121.487 26.5512 120.423 27.8814 120.533 29.4211C120.643 30.9607 121.884 32.1268 123.305 32.0255Z" fill="#9DA6BE"/>
<path d="M127.623 29.363L117.775 29.3706C116.332 29.3717 115.164 30.5423 115.165 31.9852C115.166 33.4282 116.336 34.597 117.779 34.5959L127.627 34.5883C129.07 34.5872 130.238 33.4166 130.237 31.9737C130.236 30.5307 129.066 29.3619 127.623 29.363Z" fill="#D2DAE5"/>
<path d="M139.19 29.3548L126.232 29.3647C124.789 29.3658 123.62 30.5364 123.621 31.9794C123.623 33.4223 124.793 34.5911 126.236 34.59L139.194 34.5801C140.637 34.579 141.806 33.4083 141.805 31.9654C141.804 30.5225 140.633 29.3536 139.19 29.3548Z" fill="#D2DAE5"/>
<path d="M125.244 33.168C125.348 33.5664 125.786 34.4797 127.078 34.5294C128.37 34.5791 128.91 33.7393 129.111 33.3167" stroke="white" stroke-width="1.66751" stroke-linecap="round"/>
<path d="M72.6228 32.5281C79.1999 33.4067 85.2439 28.7871 86.1224 22.21C87.001 15.6329 82.3814 9.58889 75.8043 8.71035C69.2271 7.83182 63.1832 12.4514 62.3046 19.0285C61.4261 25.6056 66.0457 31.6496 72.6228 32.5281Z" fill="#D2DAE5"/>
<path d="M87.125 39.8582C93.7021 40.7368 99.7461 36.1172 100.625 29.5401C101.503 22.9629 96.8835 16.919 90.3064 16.0404C83.7293 15.1619 77.6853 19.7815 76.8068 26.3586C75.9283 32.9357 80.5479 38.9797 87.125 39.8582Z" fill="#D2DAE5"/>
<path d="M65.6747 46.7899C72.2518 47.6684 78.2958 43.0488 79.1743 36.4717C80.0528 29.8946 75.4332 23.8506 68.8561 22.9721C62.279 22.0935 56.235 26.7131 55.3565 33.2902C54.478 39.8673 59.0976 45.9113 65.6747 46.7899Z" fill="#D2DAE5"/>
<path d="M80.1342 54.4388C86.7113 55.3173 92.7553 50.6977 93.6338 44.1206C94.5124 37.5435 89.8928 31.4995 83.3157 30.621C76.7386 29.7425 70.6946 34.3621 69.816 40.9392C68.9375 47.5163 73.5571 53.5603 80.1342 54.4388Z" fill="#D2DAE5"/>
<path d="M68.8329 33.6258C71.2806 33.9527 73.5299 32.2335 73.8568 29.7858C74.1838 27.3381 72.4646 25.0889 70.0169 24.7619C67.5692 24.435 65.3199 26.1542 64.993 28.6018C64.666 31.0495 66.3852 33.2988 68.8329 33.6258Z" fill="white"/>
<path d="M76.9445 34.7239C79.3922 35.0509 81.6415 33.3317 81.9685 30.884C82.2954 28.4363 80.5762 26.187 78.1285 25.8601C75.6808 25.5331 73.4316 27.2523 73.1046 29.7C72.7777 32.1477 74.4969 34.397 76.9445 34.7239Z" fill="white"/>
<path d="M76.6143 32.979C77.9988 33.164 79.2711 32.1915 79.4561 30.807C79.641 29.4225 78.6686 28.1502 77.284 27.9652C75.8995 27.7803 74.6272 28.7528 74.4423 30.1373C74.2573 31.5218 75.2298 32.7941 76.6143 32.979Z" fill="#9DA6BE"/>
<path d="M68.8024 31.9204C70.1869 32.1054 71.4592 31.1329 71.6442 29.7484C71.8291 28.3639 70.8566 27.0916 69.4721 26.9066C68.0876 26.7217 66.8153 27.6942 66.6304 29.0787C66.4454 30.4632 67.4179 31.7355 68.8024 31.9204Z" fill="#9DA6BE"/>
<path d="M73.6831 22.5021L66.1011 21.4893C64.6574 21.2965 63.3307 22.3105 63.1379 23.7542L63.0391 24.4936C62.8462 25.9373 63.8603 27.264 65.304 27.4569L72.886 28.4696C74.3297 28.6625 75.6564 27.6484 75.8492 26.2047L75.948 25.4653C76.1409 24.0216 75.1268 22.6949 73.6831 22.5021Z" fill="#D2DAE5"/>
<path d="M83.516 23.8153L73.2894 22.4493C71.8456 22.2564 70.5189 23.2705 70.3261 24.7142L70.2273 25.4536C70.0345 26.8973 71.0485 28.224 72.4922 28.4168L82.7189 29.7829C84.1627 29.9757 85.4893 28.9617 85.6822 27.518L85.781 26.7786C85.9738 25.3348 84.9598 24.0081 83.516 23.8153Z" fill="#D2DAE5"/>
<path d="M77.1367 37.5454L80.5783 38.0051" stroke="white" stroke-width="1.84844" stroke-linecap="round"/>
</svg>
